<?xml version="1.0" standalone="no"?>
<!DOCTYPE svg PUBLIC "-//W3C//DTD SVG 20010904//EN"
 "http://www.w3.org/TR/2001/REC-SVG-20010904/DTD/svg10.dtd">
<svg version="1.0" xmlns="http://www.w3.org/2000/svg"
 width="608.000000pt" height="293.000000pt" viewBox="0 0 608.000000 293.000000"
 preserveAspectRatio="xMidYMid meet">

<g transform="translate(0.000000,293.000000) scale(0.100000,-0.100000)"
fill="#000000" stroke="none">
<path d="M5430 2856 l-125 -32 -3 -607 c-1 -396 1 -607 8 -607 8 0 198 50 252
66 9 3 33 16 53 30 l37 25 -7 -42 c-5 -31 -4 -40 5 -34 9 6 10 0 5 -24 -14
-62 34 -27 79 59 30 58 72 199 80 270 11 100 14 284 6 350 -5 36 -11 108 -15
160 -9 139 -34 261 -69 327 -8 17 -31 44 -51 62 -46 40 -88 40 -255 -3z m147
-264 c7 -4 17 -41 24 -82 6 -41 16 -84 22 -95 20 -38 25 -110 16 -238 -10
-148 -29 -206 -78 -231 -63 -33 -61 -39 -61 212 0 163 -5 255 -16 321 -9 51
-13 99 -10 107 6 15 81 20 103 6z m-110 -654 c-3 -8 -6 -5 -6 6 -1 11 2 17 5
13 3 -3 4 -12 1 -19z"/>
<path d="M4914 2736 c-59 -27 -93 -68 -124 -146 -19 -46 -54 -201 -47 -206 1
-1 33 -5 71 -10 l69 -9 18 -50 c12 -36 18 -83 18 -163 1 -111 1 -113 22 -102
31 17 68 4 80 -28 16 -41 23 -192 10 -238 -6 -23 -20 -53 -32 -68 -22 -28 -59
-35 -59 -11 0 21 -46 121 -59 129 -6 4 -35 -6 -65 -23 -29 -17 -60 -31 -68
-31 -11 0 -17 24 -26 93 -11 80 -20 107 -70 206 -72 144 -112 190 -169 198
-56 7 -122 -25 -169 -83 -36 -44 -94 -170 -94 -204 0 -11 -4 -22 -10 -25 -7
-4 -10 60 -10 186 l0 192 -31 56 c-18 31 -41 70 -52 87 l-20 31 -70 -18 c-38
-10 -73 -21 -78 -26 -5 -5 -10 -100 -11 -212 l-3 -203 -39 31 c-21 17 -49 31
-61 31 -41 0 -89 -43 -125 -114 l-34 -67 -39 41 c-21 22 -53 48 -69 56 -29 15
-32 15 -57 -3 -14 -11 -30 -29 -36 -41 -11 -26 -23 -28 -39 -7 -9 12 -19 13
-46 6 -19 -6 -54 -15 -77 -21 l-43 -11 0 -119 c0 -66 -3 -120 -6 -120 -3 0
-45 36 -92 81 -108 100 -131 113 -185 104 -147 -25 -240 -111 -262 -242 -4
-24 -9 -43 -12 -43 -3 0 -36 25 -74 55 -37 30 -73 55 -78 55 -6 0 -11 4 -11 9
0 5 -13 14 -30 21 -29 12 -30 14 -30 84 l0 71 -73 61 c-109 92 -101 88 -187
67 l-75 -19 -3 -207 -2 -207 75 0 75 0 3 178 2 177 3 -177 2 -178 139 0 c135
0 139 -1 145 -22 3 -13 6 -177 6 -365 l0 -342 69 -41 c107 -62 101 -63 101 16
0 54 -4 72 -20 89 -76 81 -79 314 -6 426 18 27 26 52 26 83 0 38 -5 48 -35 74
-32 29 -33 31 -12 35 22 4 22 4 0 6 -16 1 -20 6 -16 21 5 18 14 20 78 20 49 0
75 4 78 13 3 6 3 -4 0 -24 -5 -32 -1 -39 26 -58 l32 -23 38 34 c22 18 40 38
40 43 0 6 -20 27 -45 48 -39 34 -47 37 -62 25 -15 -12 -16 -11 -3 4 17 23 77
34 96 18 8 -7 15 -28 15 -47 l0 -34 85 3 85 3 0 -235 c-1 -129 2 -260 6 -292
6 -55 7 -57 71 -103 36 -25 67 -44 69 -42 12 12 -10 89 -29 98 -16 9 -17 13
-6 20 10 6 11 9 2 9 -10 0 -13 61 -13 270 l0 270 83 0 82 0 -3 -257 -2 -258
59 -48 c32 -26 62 -47 65 -47 3 0 6 98 6 218 0 234 16 382 43 409 15 15 12 21
-38 79 -60 67 -65 79 -35 71 10 -3 21 -2 23 2 2 3 2 1 1 -6 -2 -7 17 -34 42
-61 28 -32 44 -59 44 -76 0 -26 1 -26 75 -26 64 0 75 3 76 18 1 9 5 -15 9 -54
8 -76 31 -124 60 -124 33 0 47 32 53 120 3 47 10 96 16 110 9 22 10 19 10 -22
l1 -48 80 0 80 0 0 -166 0 -167 43 -53 c23 -29 45 -53 50 -54 4 0 7 99 7 220
l0 220 84 0 c62 0 87 -4 96 -15 7 -8 20 -15 30 -15 15 0 18 14 23 108 6 109
20 174 44 203 11 13 7 25 -22 80 -39 72 -41 79 -22 79 24 0 44 -33 61 -101 24
-97 20 -222 -10 -321 -5 -16 3 -18 71 -18 75 0 76 -1 69 -22 -16 -53 -53 -126
-83 -162 -17 -21 -31 -41 -31 -43 0 -2 15 -27 34 -54 l34 -51 26 30 c55 60
110 205 121 315 6 54 10 65 21 57 7 -6 16 -25 19 -41 l7 -30 173 3 c113 2 171
0 168 -7 -3 -5 -17 -24 -30 -42 l-23 -32 21 -53 c11 -29 22 -55 24 -57 9 -9
75 112 100 184 36 105 45 250 20 345 -9 36 -20 70 -24 75 -4 6 -14 32 -21 58
-13 48 -9 78 21 155 21 54 -2 273 -32 307 -5 5 -9 16 -9 25 0 43 -35 127 -65
157 -28 28 -40 33 -81 33 -30 0 -69 -9 -100 -24z m85 -235 c13 -44 15 -121 3
-121 -14 0 -61 159 -48 163 21 8 33 -4 45 -42z m-15 -183 c-9 -18 -19 -28 -21
-21 -2 6 4 27 13 45 9 18 19 28 21 21 2 -6 -4 -27 -13 -45z m-1064 -477 c20
-49 6 -56 -24 -12 -16 23 -34 41 -40 41 -6 0 -4 4 3 9 21 13 46 -3 61 -38z
m427 -133 c-3 -7 -5 -2 -5 12 0 14 2 19 5 13 2 -7 2 -19 0 -25z m-1190 -10
c-3 -7 -5 -2 -5 12 0 14 2 19 5 13 2 -7 2 -19 0 -25z m640 -35 c-3 -10 -5 -4
-5 12 0 17 2 24 5 18 2 -7 2 -21 0 -30z"/>
<path d="M890 1070 c0 -505 -3 -640 -12 -641 -14 0 160 -53 225 -68 l37 -9 0
74 c0 41 -4 74 -9 74 -18 0 -74 67 -95 115 -34 76 -50 176 -49 315 0 193 43
349 123 450 28 35 30 44 30 117 l0 79 -42 21 c-24 12 -80 42 -125 68 l-83 45
0 -640z"/>
<path d="M750 1671 c-77 -20 -106 -32 -108 -44 -3 -15 9 -17 117 -17 l121 0 0
45 c0 30 -4 45 -12 44 -7 0 -60 -13 -118 -28z"/>
<path d="M1863 1613 c9 -2 25 -2 35 0 9 3 1 5 -18 5 -19 0 -27 -2 -17 -5z"/>
<path d="M440 1576 c0 -7 9 -79 20 -159 11 -80 22 -173 25 -207 9 -97 45 -353
50 -358 3 -3 5 -3 5 1 0 3 18 151 40 328 22 178 38 324 37 325 -6 5 -167 84
-172 84 -3 0 -5 -6 -5 -14z"/>
<path d="M2016 1534 c9 -21 24 -69 33 -107 15 -58 22 -71 54 -93 l37 -25 0 88
0 88 -38 22 c-20 12 -52 32 -70 44 l-33 22 17 -39z"/>
<path d="M4835 1475 c37 -67 51 -80 27 -27 -11 24 -28 51 -37 60 -12 11 -8 0
10 -33z"/>
<path d="M2334 1443 c-17 -25 -19 -57 -24 -337 l-5 -308 68 -35 c121 -61 117
-60 117 -3 0 44 -3 52 -24 62 l-25 11 -3 299 -3 299 -25 19 c-34 27 -54 25
-76 -7z"/>
<path d="M1434 1383 c44 -92 66 -207 66 -347 0 -68 2 -74 25 -84 45 -21 48
-17 41 51 -5 56 4 204 20 297 l5 35 -90 48 -89 47 22 -47z"/>
<path d="M2934 1355 c-68 -60 -88 -97 -81 -147 8 -55 17 -68 47 -68 53 0 90
72 98 187 2 46 3 83 1 83 -2 0 -31 -25 -65 -55z"/>
<path d="M692 1073 c-36 -310 -68 -573 -81 -666 l-8 -57 54 -15 c139 -39 160
-44 191 -50 33 -5 33 -5 30 27 -3 32 -6 34 -75 53 l-73 19 -2 489 -3 489 -33
-289z"/>
<path d="M1774 1329 c-32 -64 -42 -119 -41 -232 2 -117 19 -176 60 -201 38
-24 115 64 117 132 0 15 7 26 19 29 14 3 20 18 25 55 4 28 14 65 23 81 14 29
14 31 -8 48 -13 10 -31 21 -40 24 -9 3 -21 16 -27 30 -10 22 -77 65 -101 65
-6 0 -18 -14 -27 -31z"/>
<path d="M3927 1319 c-9 -25 -29 -61 -42 -79 l-25 -34 47 -48 c26 -26 51 -48
55 -48 5 0 17 15 28 32 l20 33 -30 30 c-25 26 -29 39 -32 95 l-3 65 -18 -46z"/>
<path d="M341 765 l-1 -491 103 -23 c188 -44 177 -43 177 -6 0 31 -1 32 -78
49 l-77 18 -62 472 -61 471 -1 -490z"/>
<path d="M1208 1232 c-28 -36 -39 -64 -45 -124 l-6 -61 36 7 c19 4 59 13 87
22 49 15 51 16 46 45 -3 16 -8 42 -11 57 -4 21 -17 34 -49 50 -41 19 -45 20
-58 4z"/>
<path d="M2994 1074 c-4 -14 -21 -45 -40 -69 l-32 -43 69 -47 70 -46 30 32 30
32 -43 28 c-46 31 -56 47 -57 96 -1 41 -18 52 -27 17z"/>
<path d="M2061 994 c-16 -91 -55 -188 -97 -246 -19 -28 -34 -51 -32 -53 2 -1
43 -20 92 -41 l89 -39 34 40 c57 65 59 74 24 88 l-31 11 0 137 c0 134 0 137
-25 153 -13 9 -28 16 -33 16 -5 0 -14 -30 -21 -66z"/>
<path d="M1163 822 c7 -56 40 -112 68 -112 25 0 66 36 77 69 11 32 18 28 -137
89 -12 4 -13 -4 -8 -46z"/>
<path d="M1469 763 c-20 -62 -57 -136 -95 -189 -14 -21 -12 -22 88 -58 57 -20
106 -36 110 -36 16 0 52 49 84 114 l33 69 -33 38 c-19 20 -37 47 -41 58 -4 14
-27 31 -62 46 -31 14 -57 25 -58 25 -2 0 -13 -30 -26 -67z"/>
</g>
</svg>
